<svg xmlns="http://www.w3.org/2000/svg" xmlns:xlink="http://www.w3.org/1999/xlink" width="683.966" height="437.979" viewBox="0 0 683.966 437.979"><defs><path id="a" d="M-7.5 297.583V-12h668.967v325.17L494.39 301.898s-263.5-71.5-411 5l-90.89-9.315z"/></defs><clipPath id="b"><use xlink:href="#a" overflow="visible"/></clipPath><g clip-path="url(#b)"><path fill="none" stroke="#F7F5E7" stroke-width="1.634" stroke-miterlimit="10" d="M630.02 218.097L545.31 173.7l-420.737-25.354-100.477 68.92v65.967l256.606 29.938 349.318-40.593V218.1l-349.318-2.984-156.13-66.768"/><path d="M163.747 149.887l9.53-109.662h.015V18.927h-6.05l-.015-2.304 6.065-.025v-6.106h2.494l.02 6.063 6.055-.005-.01 2.33-6.03.024-.026 21.57h-1.38l-1.356 109.972zm11.225-138.575l.014 4.433.005 1.63h1.63l4.42-.004-.002.7-4.41.02-1.624.008v1.625l-.024 19.94h-.866V18.11h-6.053l-.003-.673 4.433-.02 1.626-.006v-6.1h.862m-1.458 35.61l-1.27 102.66-7.612-.454 8.88-102.202m3.088-37.242h-4.125v6.11l-6.07.024.028 3.937h6.045v20.48l-.01-.077-9.603 110.503 22.61 1.362-8.864-111.54.024-20.756 6.025-.024.025-3.96-6.063.003-.02-6.063zm7.982 141.466l-10.712-.666L175.224 41.3h.635l8.73 109.847z" fill="#F7F5E7"/><path fill="#F7F5E7" stroke="#F7F5E7" stroke-width="1.634" stroke-miterlimit="10" d="M280.702 215.114l348.816 2.72 2.652 1.276-2.594-.16.254 1.54-349.128 1.16-155.676-65.11-95.062 60.663-5.868.064 100.477-68.92z"/><path fill="#F7F5E7" stroke="#F7F5E7" stroke-width=".658" stroke-miterlimit="10" d="M114.293 182.842l14.818-.154 33.75 18.038v98.697l-15.39-1.795v-97.056l-33.173-17.73"/><path fill="none" stroke="#F7F5E7" stroke-width=".647" stroke-miterlimit="10" d="M147.465 297.583L81.12 289.84v-87.187l33.173-19.81 33.172 17.73z"/><path fill="#F7F5E7" d="M115 198.276l-1.786 19.95-16.703 2.107 16.547 2.108 2.027 40.34 1.866-40.172 17.677-2.27-18.165-2.27z"/><path d="M204.945 276.655l-16.073-.873v-29.084l16.073.196zm0-29.86c0-4.46-3.62-8.08-8.036-8.08-4.366-.003-7.86 3.53-7.86 7.89l15.89.19zM70.225 265.86l-12.953-.703v-23.44l12.952.16zm0-24.062c0-3.594-2.918-6.512-6.476-6.512-3.52-.002-6.336 2.846-6.336 6.357l12.806.157zm243.448 4.64l17.137-.218v30.926l-17.137 1.123v-31.835m17.137-.22c0-4.837-3.812-8.962-8.57-8.86-4.814.107-8.566 4.13-8.566 9.078l17.136-.217zm46.106-2.16l15.996-.203v28.872l-15.996 1.046v-29.713m0 0c0-4.62 3.502-8.375 7.998-8.473 4.44-.098 7.998 3.754 7.998 8.27l-15.996.203zm53.354-1.774l14.53-.183v26.227l-14.53.953v-26.995m14.53-.185c0-4.103-3.23-7.6-7.265-7.513-4.084.09-7.266 3.5-7.266 7.697l14.53-.183zm33.227-1.59l14.168-.18v25.57l-14.168.927V240.51m14.168-.18c0-4-3.15-7.41-7.084-7.325-3.98.086-7.08 3.412-7.08 7.504l14.17-.18zm27.785-1l13.23-.165v23.877l-13.23.87v-24.58m13.23-.167c0-3.738-2.946-6.922-6.618-6.842-3.72.08-6.613 3.186-6.613 7.008l13.23-.16zm24.57-1.207l12.366-.156v22.322l-12.367.81v-22.976m12.364-.156c0-3.492-2.75-6.47-6.184-6.393-3.476.07-6.183 2.972-6.183 6.544l12.368-.156zm22.55-.694l11.583-.144v20.902l-11.587.758v-21.516m11.587-.144c0-3.27-2.578-6.06-5.793-5.988-3.256.07-5.793 2.79-5.793 6.133" fill="#F7F5E7" stroke="#fff" stroke-width="1.634" stroke-miterlimit="10"/><path fill="none" stroke="#F7F5E7" stroke-miterlimit="10" d="M280.702 221.65v92.914"/></g><path fill="#28458E" stroke="#fff" stroke-miterlimit="10" d="M61.075 353.65c6.874-58.52 164.296-88.126 351.615-66.125 25.52 2.997 50.27 6.804 73.984 11.28-28.9-7.034-59.602-13.11-91.55-17.956-186.473-28.29-344.803-3.997-353.64 54.26-3.037 20.02 11.97 41.44 40.545 62.083-15.096-14.428-22.64-29.19-20.96-43.546z"/><path fill="#6D7FE3" stroke="#fff" stroke-miterlimit="10" d="M41.018 336.228c8.836-58.255 167.167-82.55 353.64-54.265 43.876 6.656 85.4 15.632 123.134 26.223-39.166-13.488-82.857-25.402-129.368-34.8-184.87-37.35-344.196-20.81-355.866 36.944-2.13 10.538.825 21.72 8.166 33.184-.15-2.446-.072-4.877.294-7.286z"/><path d="M236.923 413.414c0 2.783-1.008 4.92-3.024 6.408s-4.95 2.23-8.79 2.23c-2.24 0-4.27-.047-6.095-.143l.143-9.317-.144-21.36 7.295-.048c2.69 0 4.77.624 6.24 1.872 1.472 1.247 2.21 3.04 2.21 5.374 0 3.714-1.538 6.19-4.61 7.44 4.512.737 6.77 3.25 6.77 7.538zm-4.872 4.8c1.59-1.15 2.38-2.8 2.38-4.944 0-1.79-.575-3.2-1.73-4.225-1.15-1.023-2.814-1.646-4.99-1.87l-6.24.046-.05 5.237.096 7.344c1.248.098 2.512.145 3.792.145 2.91 0 5.16-.577 6.744-1.73zm-5.97-24.914h-4.512l-.096 11.717 5.76.096c3.327-.702 4.99-2.847 4.99-6.43s-2.05-5.378-6.144-5.378zm28.174 7.92c1.088.997 1.633 2.37 1.633 4.13 0-.445-.08 1.62-.24 6.19-.192 3.65-.288 5.716-.288 6.196 0 .832.12 1.416.36 1.752.24.336.647.504 1.223.504s1.184-.16 1.824-.48l.336.24-.29 1.585c-.767.48-1.583.736-2.447.768-1.92-.064-2.928-1.264-3.024-3.6h-.24c-1.826 2.08-3.715 3.312-5.666 3.695-1.92 0-3.425-.504-4.512-1.512-1.088-1.008-1.632-2.408-1.632-4.2 0-2.59 1.41-4.208 4.225-4.85l7.968-1.87.096-3.89c0-1.374-.37-2.423-1.105-3.142-.737-.72-1.776-1.08-3.12-1.08-2.048 0-4.29 1.04-6.72 3.12l-.288-.146-.384-1.775c2.624-2.08 5.2-3.12 7.728-3.12 1.954.002 3.474.498 4.56 1.49zM243.55 416.2c0 1.217.336 2.168 1.008 2.855.672.69 1.6 1.033 2.784 1.033 1.95 0 3.92-1.297 5.903-3.89l.192-4.655-7.44 1.778c-1.632.386-2.448 1.347-2.448 2.88zm36.767-13.607c1.44 1.84 2.16 4.44 2.16 7.8 0 3.777-.912 6.69-2.736 8.736-1.824 2.05-4.4 3.07-7.73 3.07-1.57 0-3.12-.145-4.656-.43l.048 9.02h-2.446l.144-18.24-.144-12.287 2.4-.285v3.167h.24c1.983-1.922 4.16-3.025 6.528-3.312 2.69 0 4.756.92 6.195 2.76zm-2.28 15.265c1.393-1.648 2.09-4.023 2.09-7.127 0-2.814-.537-4.982-1.61-6.504-1.072-1.516-2.6-2.277-4.583-2.277-2.335 0-4.527 1.216-6.575 3.647l-.05 6.817.048 6.814c1.824.74 3.456 1.106 4.896 1.106 2.464 0 4.393-.823 5.785-2.47zm20.57 1.03l.287.24-.24 1.73c-1.6.83-3.04 1.264-4.32 1.297-3.263-.383-4.895-2.367-4.895-5.95l.095-4.32-.047-9.983h-2.976l-.192-.24.192-1.538h2.976v-4.368l2.112-.865.288.24-.048 4.99h6.96l.192.24-.192 1.538h-6.96l-.144 14.062c0 2.69 1.105 4.032 3.313 4.032 1.12 0 2.32-.366 3.6-1.104zm8.157-26.494c0 1.12-.542 1.68-1.63 1.68-1.056 0-1.584-.527-1.584-1.582 0-.512.144-.92.432-1.225.288-.305.688-.455 1.2-.455 1.056 0 1.584.527 1.584 1.584zm-.43 29.52h-2.447l.144-9.36-.144-12.287 2.496-.287-.192 12.432.144 9.503zm18.864-21.07l-.384 2.063-.434.096c-1.505-.866-2.96-1.298-4.368-1.298-1.313 0-2.385.37-3.217 1.107-.83.735-1.246 1.63-1.246 2.687 0 1.02.383 1.83 1.15 2.422s1.936 1.24 3.504 1.943c1.28.61 2.28 1.138 3 1.585.72.45 1.344 1.04 1.872 1.776.528.738.792 1.633.792 2.69 0 1.118-.296 2.16-.888 3.118-.593.96-1.45 1.73-2.57 2.306-1.12.576-2.417.863-3.89.863-2.143 0-4.143-.528-6-1.585l.338-2.16.336-.19c1.666 1.376 3.49 2.063 5.474 2.063 1.472 0 2.656-.4 3.552-1.2.896-.8 1.344-1.74 1.344-2.83 0-.99-.368-1.784-1.104-2.376-.736-.593-1.888-1.257-3.456-1.993-1.247-.575-2.255-1.103-3.023-1.583-.766-.48-1.414-1.103-1.942-1.872-.528-.766-.792-1.693-.792-2.78 0-1.696.64-3.097 1.92-4.2 1.28-1.105 2.98-1.656 5.09-1.656 1.696 0 3.344.335 4.945 1.007zm16.8 18.046l.288.24-.24 1.73c-1.6.83-3.04 1.263-4.32 1.296-3.262-.383-4.894-2.367-4.894-5.95l.096-4.32-.047-9.983h-2.98l-.192-.24.192-1.538h2.973v-4.368l2.112-.865.288.24-.048 4.99h6.96l.192.24-.193 1.536h-6.96l-.144 14.062c0 2.69 1.106 4.033 3.314 4.033 1.12 0 2.32-.366 3.6-1.104zm32.927-25.345l-.527 2.258-.384.05c-2.24-1.792-4.77-2.69-7.585-2.69-3.426 0-6.04 1.153-7.85 3.456-1.81 2.303-2.712 5.63-2.712 9.982s.88 7.672 2.64 9.96c1.76 2.288 4.288 3.433 7.584 3.433 3.04 0 5.84-1.007 8.4-3.024l.384.146-.192 2.353c-2.75 1.823-5.663 2.735-8.734 2.735-4.032 0-7.145-1.337-9.336-4.01-2.194-2.67-3.29-6.485-3.29-11.446 0-5.024 1.144-8.905 3.432-11.64 2.288-2.738 5.544-4.106 9.768-4.106 3.2 0 6 .847 8.4 2.542zm20.257 7.947c1.184 1.135 1.76 2.744 1.73 4.824l-.098 6.144.096 9.457h-2.496l.19-15.12c0-1.535-.393-2.727-1.177-3.576-.784-.846-1.896-1.27-3.336-1.27-2.336 0-4.69 1.33-7.056 3.985l-.046 6.48.144 9.504h-2.447l.144-9.36-.146-24.097 2.494-.24-.144 15.266h.29c2.27-2.21 4.51-3.44 6.72-3.7 2.24 0 3.95.57 5.135 1.704zm26.687 18.504c.543 0 1.134-.16 1.774-.48l.335.24-.288 1.585c-.77.48-1.585.738-2.448.77-1.858-.064-2.85-1.264-2.98-3.6h-.287c-2.176 2.176-4.432 3.393-6.768 3.648-2.113 0-3.73-.567-4.85-1.704-1.12-1.135-1.665-2.742-1.633-4.824l.05-5.23-.098-10.128 2.495-.287-.144 15.168c-.032 1.535.32 2.73 1.056 3.574.736.85 1.792 1.273 3.168 1.273 2.27 0 4.53-1.2 6.77-3.6v-16.13l2.4-.285-.143 17.662c.003 1.57.53 2.354 1.587 2.354zm17.806-19.872v2.4l-.334.096c-.576-.096-1.09-.145-1.536-.145-2.114 0-4.114 1.937-6 5.81v4.127l.142 9.504h-2.495l.145-9.36-.094-12.287 2.353-.29v4.896h.24c1.824-3.23 3.936-4.847 6.336-4.847.382 0 .8.032 1.246.094zm17.52 1.248l-.48 2.16-.382.05c-1.664-1.153-3.408-1.73-5.232-1.73-2.08 0-3.72.824-4.92 2.473s-1.8 3.895-1.8 6.743c0 2.783.607 4.99 1.824 6.623 1.214 1.635 2.88 2.45 4.99 2.45 2.047 0 3.967-.608 5.76-1.823l.336.19-.24 2.113c-1.952 1.056-3.984 1.583-6.096 1.583-2.752 0-4.928-.99-6.527-2.977-1.6-1.984-2.4-4.67-2.4-8.064 0-3.488.815-6.264 2.447-8.328s3.858-3.097 6.675-3.097c2.24 0 4.255.546 6.047 1.634zm20.16.12c1.185 1.136 1.76 2.745 1.73 4.825l-.097 6.144.096 9.46h-2.498l.19-15.12c0-1.536-.39-2.728-1.175-3.577-.783-.848-1.895-1.27-3.335-1.27-2.334 0-4.686 1.327-7.054 3.983l-.047 6.48.144 9.504h-2.446l.145-9.36-.147-24.097 2.495-.24-.144 15.266h.29c2.27-2.21 4.51-3.44 6.72-3.7 2.24 0 3.95.57 5.135 1.703z" fill="#6D7FE3"/><path d="M139.87 346.396l14.115.2c6.905 0 10.357-.167 10.357-.505l.71 3.96c-1.76 1.156-2.893 2.78-3.4 4.877-.508 2.1-.762 5.62-.762 10.56 0 4.942.236 8.327.71 10.155l-.914 1.32c-2.843 1.15-6.465 2.115-10.865 2.893s-8.762 1.17-13.093 1.17c-9.34 0-16.72-2.86-22.135-8.58-5.416-5.72-8.123-13.825-8.123-24.32 0-10.49 3.213-18.9 9.645-25.23 6.43-6.33 15.265-9.493 26.502-9.493 5.618 0 12.32.846 20.104 2.535l.71 1.32c-1.354 5.416-2.233 11.645-2.64 18.684l-10.052.61c.203-1.693.305-3.74.305-6.145s-.83-4.197-2.49-5.383c-1.66-1.182-4.45-1.775-8.374-1.775-6.093 0-10.61 1.828-13.556 5.484-2.944 3.655-4.417 9.444-4.417 17.364s1.488 14.132 4.468 18.632c2.98 4.502 7.175 6.752 12.59 6.752 1.76 0 3.454-.22 5.08-.66 1.624-.44 3.18-1.1 4.67-1.98v-9.442c0-1.963-.29-3.266-.863-3.91-.575-.643-1.776-.965-3.603-.965h-5.18l-.61-.81 1.117-7.31zm39.7 20.612v-20.105c0-2.3-.304-3.873-.913-4.72-.61-.847-1.76-1.27-3.453-1.27l-1.93.1-.506-.71.61-5.28 18.58-3.35 1.016.913c-.677 3.387-1.05 6.533-1.117 9.443l.61.4c2.096-3.112 4.416-5.565 6.954-7.36 2.54-1.793 4.996-2.69 7.366-2.69l3.452.406.406.81c-1.082 6.84-1.76 13.032-2.03 18.583l-6.6.406c0-3.25-.203-5.4-.61-6.448s-1.184-1.577-2.334-1.577c-2.303 0-4.537 1.456-6.7 4.366-.61 11.78-.916 18.413-.916 19.9s.27 2.573.813 3.25c.54.677 1.556 1.015 3.046 1.015l5.177-.406.304.61-1.116 6.902c-5.62-.27-10.052-.406-13.3-.406l-12.795.406.81-6.295c2.033-.133 3.403-.674 4.114-1.623.712-.946 1.068-2.706 1.068-5.278zm48.13-10.968v.915c.202 4.47 1.42 7.938 3.654 10.408s5.245 3.705 9.037 3.705c1.9 0 3.86-.254 5.89-.762 2.03-.506 4.13-1.268 6.3-2.283l.81.305 1.625 5.178c-2.776 2.03-5.838 3.79-9.19 5.28-3.35 1.487-6.11 2.233-8.274 2.233-7.176 0-12.81-2.1-16.906-6.3-4.097-4.197-6.143-9.95-6.143-17.26s2.3-13.437 6.904-18.38c4.603-4.94 10.357-7.41 17.26-7.41 11.374 0 17.06 5.822 17.06 17.463 0 1.965-.238 3.895-.71 5.787l-1.22 1.118H227.7zm15.534-8.73c0-5.01-2.132-7.515-6.397-7.515-2.64 0-4.756.898-6.346 2.69-1.59 1.796-2.52 4.417-2.79 7.87l13.61-.71c.743-.136 1.25-.34 1.522-.61.27-.27.406-.846.406-1.726zm54.423 18.835c0 1.39.338 2.455 1.016 3.2.676.743 1.658 1.114 2.945 1.114 1.285 0 2.775-.58 4.467-1.73l1.625 2.13c-.95 1.966-2.473 4.05-4.568 6.247-2.1 2.2-3.86 3.502-5.28 3.91-6.23 0-9.646-2.607-10.255-7.82l-.812-.305c-5.146 5.145-8.87 7.717-11.17 7.717-3.926 0-7.227-1.423-9.9-4.265-2.674-2.846-4.01-6.365-4.01-10.563 0-2.098.54-3.926 1.625-5.482 1.082-1.556 2.503-2.54 4.265-2.944l19.496-4.567.107-2.337c0-2.91-.762-5.16-2.285-6.752-1.523-1.59-3.402-2.386-5.635-2.386-2.234 0-4.35.39-6.347 1.168-1.998.78-4.08 1.98-6.245 3.605l-.913-.507-1.83-6.093c9.272-5.213 15.535-7.82 18.783-7.82 5.686 0 9.934 1.27 12.744 3.81 2.806 2.54 4.212 5.905 4.212 10.103 0 1.082-.34 4.434-1.015 10.05-.68 5.62-1.017 9.124-1.017 10.51zm-21.424-4.823c-1.558.473-2.335 1.59-2.335 3.35 0 1.762.524 3.217 1.574 4.367 1.048 1.15 2.54 1.72 4.468 1.72s4.178-.947 6.752-2.84l.203-9.546-10.662 2.945zm50.26 1.522c0 5.418 2.03 8.123 6.093 8.123 1.962 0 4.095-.473 6.396-1.42l1.22 3.35c-5.688 5.416-9.58 8.123-11.678 8.123-4.808 0-8.344-1-10.61-2.996-2.27-1.994-3.402-5.16-3.402-9.492V345.99c0-2.098-.373-3.52-1.116-4.266-.746-.744-2.2-1.15-4.366-1.22l-1.016-.71.71-5.076c5.28-2.438 10.256-5.482 14.927-9.14l2.34-1.827 2.844 1.528c-.405 2.168-.78 5.11-1.116 8.834l11.88-.305.406.508-1.017 6.905-11.88-.305c-.407 7.856-.61 15.166-.61 21.934zm96.357 3.453c0 2.64.306 4.434.914 5.38.61.95 1.727 1.423 3.352 1.423l3.655-.305.51.812-.91 6.498c-5.62-.203-10.56-.305-14.825-.305l-14.113.203.81-6.7c2.844-.067 4.77-.728 5.788-1.98 1.016-1.253 1.523-3.706 1.523-7.362v-12.89c-4.874-.065-8.53-.1-10.966-.1l-14.215 1.015-.204 14.317c0 2.775.253 4.62.76 5.533s1.54 1.37 3.1 1.37l3.654-.305.505.71-.914 6.5c-5.685-.204-9.662-.306-11.93-.306-2.27 0-4.69.065-7.26.2-6.23.205-9.34.44-9.34.71l.71-6.6c2.98-.606 4.94-1.47 5.89-2.59.945-1.114 1.42-3.093 1.42-5.936l.102-39.092c0-2.097-.237-3.5-.71-4.212-.475-.712-1.456-1.067-2.944-1.067l-3.147.103-.508-.812.812-5.99c5.347.07 9.374.103 12.083.103l15.33-.71-.507 6.8c-2.573.407-4.198 1.034-4.874 1.88-.68.846-1.086 2.62-1.22 5.33l-.61 14.52 12.997.2c4.196 0 8.19-.234 11.98-.71v-15.44c0-2.095-.237-3.5-.71-4.21-.474-.71-1.456-1.065-2.944-1.065l-3.147.102-.507-.812.81-5.99c5.753.068 10.085.102 12.996.102l14.927-.71-.61 6.7c-2.505.34-4.147.863-4.925 1.574-.78.71-1.236 2.047-1.37 4.01-.813 15.57-1.22 28.936-1.22 40.106zm60.516-10.917c0 7.48-2.252 13.626-6.753 18.43-4.502 4.808-10.204 7.21-17.108 7.21-6.905 0-12.32-2.115-16.246-6.346-3.93-4.23-5.89-10.053-5.89-17.465s2.263-13.52 6.8-18.33c4.533-4.808 10.27-7.21 17.21-7.21 6.94 0 12.336 2.08 16.194 6.244 3.86 4.162 5.788 9.984 5.788 17.463zm-22.44 17.82c5.82 0 8.732-4.532 8.732-13.604 0-12.795-3.35-19.19-10.052-19.19-5.823 0-8.732 4.536-8.732 13.606 0 12.793 3.35 19.19 10.052 19.19zm52.697 30.157l-12.388-.203-12.388.61.812-6.296c1.89-.203 3.142-.71 3.752-1.523s.914-2.402.914-4.77l.507-15.536V347c0-2.367-.355-3.975-1.066-4.822-.71-.845-2.015-1.27-3.91-1.27h-1.32l-.405-.507.508-5.38 18.785-3.35.913 1.016c-.54 2.303-.913 4.436-1.115 6.396l.405.51c5.415-5.006 8.766-7.51 10.053-7.51 6.094 0 10.98 2.05 14.674 6.143 3.688 4.096 5.534 9.492 5.534 16.193 0 7.92-2.507 14.303-7.515 19.14-5.01 4.84-11.51 7.26-19.495 7.26l-4.162-.304v9.343c0 2.775.218 4.635.66 5.584.438.946 1.436 1.42 2.994 1.42l4.06-.203.306.406-1.12 6.295zm-6.6-32.39c2.437.95 5.093 1.422 7.97 1.422s5.212-1.24 7.007-3.71c1.793-2.47 2.69-6.06 2.69-10.764s-.897-8.495-2.69-11.37c-1.795-2.88-4.214-4.318-7.26-4.318-2.1 0-4.468.98-7.108 2.944-.405 7.92-.61 16.517-.61 25.79zm49.245-14.927v.915c.203 4.47 1.422 7.938 3.655 10.408s5.245 3.705 9.037 3.705c1.894 0 3.858-.254 5.89-.762 2.03-.506 4.127-1.268 6.295-2.283l.812.305 1.625 5.178c-2.776 2.03-5.84 3.79-9.19 5.28s-6.108 2.233-8.274 2.233c-7.176 0-12.81-2.1-16.905-6.3-4.097-4.197-6.144-9.95-6.144-17.26s2.3-13.437 6.9-18.38c4.603-4.94 10.356-7.41 17.26-7.41 11.373 0 17.06 5.822 17.06 17.463 0 1.965-.238 3.895-.71 5.787l-1.22 1.118h-26.096zm15.535-8.73c0-5.01-2.132-7.515-6.396-7.515-2.64 0-4.757.898-6.347 2.69-1.59 1.796-2.522 4.417-2.792 7.87l13.605-.71c.744-.136 1.252-.34 1.523-.61.27-.27.407-.846.407-1.726z" fill="#F7F5E7"/></svg>
