<?xml version="1.0" encoding="utf-8"?>
<!-- Generator: Adobe Illustrator 16.0.5, SVG Export Plug-In . SVG Version: 6.00 Build 0)  -->
<!DOCTYPE svg PUBLIC "-//W3C//DTD SVG 1.1//EN" "http://www.w3.org/Graphics/SVG/1.1/DTD/svg11.dtd">
<svg version="1.1" id="Layer_1" xmlns="http://www.w3.org/2000/svg" xmlns:xlink="http://www.w3.org/1999/xlink" x="0px" y="0px"
	 width="683.966px" height="437.979px" viewBox="0 0 683.966 437.979" enable-background="new 0 0 683.966 437.979"
	 xml:space="preserve">
<g id="church">
	<defs>
		<path id="SVGID_1_" d="M-7.5,297.583V-12h668.967v325.17l-167.076-11.272c0,0-263.5-71.5-411,5L-7.5,297.583z"/>
	</defs>
	<clipPath id="SVGID_2_">
		<use xlink:href="#SVGID_1_"  overflow="visible"/>
	</clipPath>
	<g id="building" clip-path="url(#SVGID_2_)">
		<polyline id="frame" fill="none" stroke="#F7F5E7" stroke-width="1.6343" stroke-miterlimit="10" points="630.02,218.097
			545.309,173.699 124.573,148.346 24.096,217.267 24.096,283.233 280.702,313.171 630.02,272.573 630.02,218.097 280.702,215.114
			124.573,148.346 		"/>
		<g>
			<polygon fill="#F7F5E7" points="163.747,149.887 173.276,40.225 173.292,40.224 173.292,18.928 167.242,18.929 167.227,16.624
				173.292,16.599 173.292,10.494 175.786,10.494 175.806,16.557 181.861,16.552 181.846,18.881 175.815,18.906 175.79,40.476
				174.411,40.477 173.053,150.448 			"/>
			<path fill="#F7F5E7" d="M174.972,11.312l0.014,4.433l0.005,1.63l1.63-0.001l4.417-0.003l-0.004,0.698l-4.409,0.018l-1.625,0.007
				l-0.002,1.625l-0.023,19.941h-0.865V19.746v-1.635l-1.634,0l-4.421,0l-0.004-0.674l4.432-0.019l1.627-0.007v-1.627v-4.474
				H174.972 M173.514,46.92l-1.268,102.661l-7.613-0.459L173.514,46.92 M176.601,9.677h-4.126v6.108l-6.07,0.025l0.025,3.936
				l6.045-0.001v20.479l-0.012-0.076l-9.602,110.504l22.611,1.363l-8.864-111.539l0.024-20.756l6.026-0.025l0.025-3.961
				l-6.063,0.005L176.601,9.677L176.601,9.677z M184.582,151.142l-10.712-0.666l1.348-109.182h0.634L184.582,151.142
				L184.582,151.142z"/>
		</g>
		<polygon id="fascia" fill="#F7F5E7" stroke="#F7F5E7" stroke-width="1.6343" stroke-miterlimit="10" points="280.702,215.114
			629.518,217.834 632.17,219.11 629.576,218.949 629.83,220.49 280.702,221.651 125.026,156.54 29.964,217.203 24.096,217.267
			124.573,148.346 		"/>
		<g id="front">
			<polyline fill="#F7F5E7" stroke="#F7F5E7" stroke-width="0.6585" stroke-miterlimit="10" points="114.293,182.842
				129.111,182.688 162.86,200.726 162.86,299.423 147.465,297.628 147.465,200.572 114.293,182.842 			"/>
			<polygon fill="none" stroke="#F7F5E7" stroke-width="0.6472" stroke-miterlimit="10" points="147.465,297.583 81.12,289.841
				81.12,202.653 114.293,182.842 147.465,200.572 			"/>
			<polygon fill="#F7F5E7" points="114.999,198.276 113.214,218.225 96.511,220.333 113.053,222.441 115.08,262.776
				116.945,222.604 134.623,220.333 116.458,218.064 			"/>
		</g>
		<g id="windows">
			<g>
				<polygon fill="#F7F5E7" stroke="#FFFFFF" stroke-width="1.6343" stroke-miterlimit="10" points="204.945,276.655
					188.872,275.782 188.872,246.698 204.945,246.894 				"/>
				<path fill="#F7F5E7" stroke="#FFFFFF" stroke-width="1.6343" stroke-miterlimit="10" d="M204.945,246.796
					c0-4.459-3.621-8.08-8.036-8.082c-4.361-0.002-7.856,3.529-7.856,7.891L204.945,246.796z"/>
			</g>
			<g>
				<polygon fill="#F7F5E7" stroke="#FFFFFF" stroke-width="1.6343" stroke-miterlimit="10" points="70.224,265.858 57.272,265.155
					57.272,241.716 70.224,241.874 				"/>
				<path fill="#F7F5E7" stroke="#FFFFFF" stroke-width="1.6343" stroke-miterlimit="10" d="M70.224,241.796
					c0-3.594-2.917-6.512-6.475-6.512c-3.514-0.002-6.331,2.846-6.331,6.357L70.224,241.796z"/>
			</g>
			<g>
				<polyline fill="#F7F5E7" stroke="#FFFFFF" stroke-width="1.6343" stroke-miterlimit="10" points="313.673,246.435
					330.81,246.218 330.81,277.144 313.673,278.267 313.673,246.435 				"/>
				<path fill="#F7F5E7" stroke="#FFFFFF" stroke-width="1.6343" stroke-miterlimit="10" d="M330.81,246.218
					c0-4.838-3.812-8.963-8.57-8.859c-4.814,0.105-8.566,4.127-8.566,9.076L330.81,246.218z"/>
			</g>
			<g>
				<polyline fill="#F7F5E7" stroke="#FFFFFF" stroke-width="1.6343" stroke-miterlimit="10" points="376.916,244.058
					392.912,243.854 392.912,272.726 376.916,273.772 376.916,244.058 				"/>
				<path fill="#F7F5E7" stroke="#FFFFFF" stroke-width="1.6343" stroke-miterlimit="10" d="M376.916,244.058
					c0-4.621,3.502-8.375,7.998-8.473c4.441-0.098,7.998,3.754,7.998,8.27L376.916,244.058z"/>
			</g>
			<g>
				<polyline fill="#F7F5E7" stroke="#FFFFFF" stroke-width="1.6343" stroke-miterlimit="10" points="430.27,242.284
					444.801,242.101 444.801,268.325 430.27,269.278 430.27,242.284 				"/>
				<path fill="#F7F5E7" stroke="#FFFFFF" stroke-width="1.6343" stroke-miterlimit="10" d="M444.801,242.101
					c0-4.104-3.232-7.602-7.266-7.514c-4.084,0.09-7.266,3.5-7.266,7.697L444.801,242.101z"/>
			</g>
			<g>
				<polyline fill="#F7F5E7" stroke="#FFFFFF" stroke-width="1.6343" stroke-miterlimit="10" points="478.027,240.509
					492.195,240.329 492.195,265.899 478.027,266.827 478.027,240.509 				"/>
				<path fill="#F7F5E7" stroke="#FFFFFF" stroke-width="1.6343" stroke-miterlimit="10" d="M492.195,240.329
					c0-4-3.15-7.41-7.084-7.324c-3.982,0.086-7.084,3.412-7.084,7.504L492.195,240.329z"/>
			</g>
			<g>
				<polyline fill="#F7F5E7" stroke="#FFFFFF" stroke-width="1.6343" stroke-miterlimit="10" points="519.979,239.331
					533.209,239.165 533.209,263.042 519.979,263.911 519.979,239.331 				"/>
				<path fill="#F7F5E7" stroke="#FFFFFF" stroke-width="1.6343" stroke-miterlimit="10" d="M533.209,239.165
					c0-3.738-2.945-6.922-6.617-6.842c-3.719,0.08-6.613,3.186-6.613,7.008L533.209,239.165z"/>
			</g>
			<g>
				<polyline fill="#F7F5E7" stroke="#FFFFFF" stroke-width="1.6343" stroke-miterlimit="10" points="557.779,237.958
					570.146,237.802 570.146,260.124 557.779,260.933 557.779,237.958 				"/>
				<path fill="#F7F5E7" stroke="#FFFFFF" stroke-width="1.6343" stroke-miterlimit="10" d="M570.146,237.802
					c0-3.492-2.75-6.469-6.184-6.393c-3.477,0.074-6.184,2.977-6.184,6.549L570.146,237.802z"/>
			</g>
			<g>
				<polyline fill="#F7F5E7" stroke="#FFFFFF" stroke-width="1.6343" stroke-miterlimit="10" points="592.695,237.108
					604.279,236.964 604.279,257.866 592.695,258.624 592.695,237.108 				"/>
				<path fill="#F7F5E7" stroke="#FFFFFF" stroke-width="1.6343" stroke-miterlimit="10" d="M604.279,236.964
					c0-3.27-2.576-6.059-5.791-5.988c-3.256,0.07-5.793,2.789-5.793,6.133"/>
			</g>
		</g>
		<line fill="none" stroke="#F7F5E7" stroke-miterlimit="10" x1="280.702" y1="221.651" x2="280.702" y2="314.564"/>
	</g>
</g>
<g>
	<path id="swoosh_2" fill="#28458E" stroke="#FFFFFF" stroke-miterlimit="10" d="M61.075,353.651
		c6.874-58.522,164.296-88.127,351.615-66.126c25.52,2.997,50.27,6.804,73.984,11.28c-28.9-7.034-59.602-13.11-91.551-17.956
		c-186.472-28.286-344.802-3.992-353.639,54.265c-3.037,20.018,11.971,41.438,40.545,62.083
		C66.938,382.769,59.389,368.006,61.075,353.651z"/>
	<path id="swoosh_1" fill="#6D7FE3" stroke="#FFFFFF" stroke-miterlimit="10" d="M41.018,336.228
		c8.836-58.255,167.167-82.55,353.639-54.265c43.877,6.656,85.4,15.632,123.135,26.223c-39.166-13.488-82.857-25.402-129.368-34.8
		c-184.87-37.351-344.196-20.811-355.866,36.944c-2.129,10.538,0.825,21.719,8.166,33.184
		C40.573,341.068,40.652,338.637,41.018,336.228z"/>
	<g>
		<path fill="#6D7FE3" d="M236.923,413.414c0,2.783-1.008,4.92-3.024,6.408s-4.944,2.23-8.784,2.23c-2.24,0-4.272-0.047-6.096-0.143
			l0.144-9.312l-0.144-21.359l7.296-0.049c2.688,0,4.768,0.625,6.24,1.873c1.472,1.248,2.208,3.039,2.208,5.375
			c0,3.713-1.536,6.191-4.608,7.439C234.667,406.613,236.923,409.125,236.923,413.414z M232.051,418.213
			c1.584-1.15,2.376-2.799,2.376-4.943c0-1.791-0.576-3.199-1.728-4.225c-1.152-1.023-2.816-1.646-4.992-1.871l-6.24,0.047
			l-0.048,5.232l0.096,7.344c1.248,0.098,2.512,0.145,3.792,0.145C228.218,419.941,230.467,419.365,232.051,418.213z
			 M226.075,393.301h-4.512l-0.096,11.713l5.76,0.096c3.328-0.703,4.992-2.848,4.992-6.432S230.17,393.301,226.075,393.301z"/>
		<path fill="#6D7FE3" d="M254.25,401.221c1.087,0.994,1.632,2.369,1.632,4.129c0-0.447-0.08,1.617-0.24,6.191
			c-0.192,3.648-0.288,5.713-0.288,6.193c0,0.832,0.12,1.416,0.36,1.752c0.24,0.336,0.648,0.504,1.224,0.504s1.184-0.16,1.824-0.48
			l0.336,0.24l-0.288,1.584c-0.768,0.48-1.584,0.736-2.448,0.768c-1.92-0.064-2.928-1.264-3.024-3.6h-0.24
			c-1.824,2.08-3.713,3.312-5.664,3.695c-1.92,0-3.425-0.504-4.512-1.512c-1.088-1.008-1.632-2.408-1.632-4.199
			c0-2.592,1.408-4.209,4.224-4.85l7.968-1.871l0.096-3.889c0-1.375-0.368-2.424-1.104-3.143c-0.737-0.721-1.776-1.08-3.12-1.08
			c-2.048,0-4.289,1.039-6.72,3.119l-0.288-0.145l-0.384-1.775c2.624-2.08,5.2-3.119,7.728-3.119
			C251.642,399.734,253.162,400.23,254.25,401.221z M243.546,416.197c0,1.217,0.336,2.168,1.008,2.855
			c0.672,0.689,1.6,1.033,2.784,1.033c1.952,0,3.919-1.297,5.904-3.889l0.192-4.656l-7.44,1.777
			C244.362,413.701,243.546,414.662,243.546,416.197z"/>
		<path fill="#6D7FE3" d="M280.313,402.59c1.44,1.84,2.16,4.439,2.16,7.801c0,3.775-0.912,6.688-2.736,8.734
			c-1.824,2.049-4.4,3.072-7.728,3.072c-1.568,0-3.12-0.145-4.656-0.432l0.048,9.023h-2.448l0.144-18.24l-0.144-12.287l2.4-0.287
			v3.168h0.24c1.983-1.922,4.159-3.025,6.528-3.312C276.81,399.83,278.874,400.75,280.313,402.59z M278.034,417.854
			c1.392-1.648,2.088-4.023,2.088-7.127c0-2.816-0.536-4.984-1.608-6.506c-1.073-1.518-2.6-2.279-4.584-2.279
			c-2.336,0-4.528,1.217-6.576,3.648l-0.048,6.816l0.048,6.814c1.824,0.738,3.456,1.105,4.896,1.105
			C274.713,420.326,276.642,419.502,278.034,417.854z"/>
		<path fill="#6D7FE3" d="M298.602,418.885l0.288,0.24l-0.24,1.729c-1.601,0.832-3.041,1.264-4.32,1.297
			c-3.264-0.385-4.896-2.369-4.896-5.953l0.096-4.32l-0.048-9.982h-2.976l-0.192-0.24l0.192-1.537h2.976v-4.367l2.112-0.865
			l0.288,0.24l-0.048,4.992h6.96l0.192,0.24l-0.192,1.537h-6.96l-0.144,14.062c0,2.689,1.104,4.033,3.312,4.033
			C296.122,419.99,297.322,419.623,298.602,418.885z"/>
		<path fill="#6D7FE3" d="M306.761,392.391c0,1.119-0.544,1.68-1.632,1.68c-1.056,0-1.584-0.529-1.584-1.584
			c0-0.512,0.144-0.92,0.432-1.225c0.288-0.305,0.688-0.455,1.2-0.455C306.233,390.807,306.761,391.334,306.761,392.391z
			 M306.33,421.91h-2.448l0.144-9.361l-0.144-12.287l2.496-0.287l-0.192,12.432L306.33,421.91z"/>
		<path fill="#6D7FE3" d="M325.193,400.838l-0.384,2.064l-0.432,0.096c-1.505-0.865-2.96-1.297-4.368-1.297
			c-1.312,0-2.384,0.369-3.216,1.105c-0.833,0.736-1.248,1.631-1.248,2.688c0,1.023,0.384,1.832,1.152,2.424s1.936,1.24,3.504,1.943
			c1.28,0.609,2.28,1.137,3,1.584c0.72,0.449,1.344,1.041,1.872,1.775c0.528,0.738,0.792,1.633,0.792,2.689
			c0,1.119-0.296,2.16-0.888,3.119c-0.592,0.961-1.448,1.729-2.568,2.305c-1.121,0.576-2.417,0.863-3.888,0.863
			c-2.145,0-4.145-0.527-6-1.584l0.336-2.16l0.336-0.191c1.664,1.377,3.487,2.064,5.472,2.064c1.472,0,2.656-0.4,3.552-1.201
			c0.896-0.799,1.344-1.742,1.344-2.832c0-0.99-0.368-1.783-1.104-2.375c-0.736-0.592-1.888-1.256-3.456-1.992
			c-1.248-0.576-2.256-1.104-3.024-1.584c-0.768-0.48-1.416-1.104-1.944-1.873c-0.528-0.768-0.792-1.695-0.792-2.783
			c0-1.695,0.64-3.096,1.92-4.199c1.28-1.105,2.976-1.656,5.088-1.656C321.944,399.83,323.592,400.166,325.193,400.838z"/>
		<path fill="#6D7FE3" d="M341.993,418.885l0.288,0.24l-0.24,1.729c-1.601,0.832-3.041,1.264-4.32,1.297
			c-3.264-0.385-4.896-2.369-4.896-5.953l0.096-4.32l-0.048-9.982h-2.976l-0.192-0.24l0.192-1.537h2.976v-4.367l2.112-0.865
			l0.288,0.24l-0.048,4.992h6.96l0.192,0.24l-0.192,1.537h-6.96l-0.144,14.062c0,2.689,1.104,4.033,3.312,4.033
			C339.513,419.99,340.713,419.623,341.993,418.885z"/>
		<path fill="#6D7FE3" d="M374.92,393.541l-0.528,2.256l-0.384,0.049c-2.24-1.791-4.769-2.688-7.584-2.688
			c-3.425,0-6.04,1.152-7.848,3.455c-1.808,2.305-2.712,5.633-2.712,9.984s0.88,7.672,2.64,9.961
			c1.76,2.287,4.288,3.432,7.584,3.432c3.04,0,5.84-1.008,8.4-3.025l0.384,0.145l-0.192,2.352c-2.752,1.824-5.664,2.736-8.735,2.736
			c-4.032,0-7.145-1.336-9.336-4.008c-2.192-2.672-3.288-6.486-3.288-11.447c0-5.023,1.144-8.904,3.432-11.641
			c2.288-2.736,5.544-4.104,9.768-4.104C369.72,390.998,372.52,391.846,374.92,393.541z"/>
		<path fill="#6D7FE3" d="M395.176,401.486c1.184,1.135,1.76,2.744,1.729,4.824l-0.097,6.143l0.097,9.457h-2.496l0.191-15.121
			c0-1.535-0.392-2.727-1.176-3.576c-0.784-0.848-1.896-1.271-3.336-1.271c-2.336,0-4.688,1.328-7.056,3.984l-0.048,6.48
			l0.144,9.504h-2.448l0.145-9.361l-0.145-24.096l2.496-0.24l-0.144,15.266h0.288c2.271-2.209,4.512-3.439,6.72-3.697
			C392.279,399.781,393.992,400.35,395.176,401.486z"/>
		<path fill="#6D7FE3" d="M421.863,419.99c0.544,0,1.135-0.16,1.775-0.48l0.336,0.24l-0.287,1.584
			c-0.769,0.48-1.585,0.736-2.448,0.768c-1.856-0.064-2.849-1.264-2.977-3.6h-0.288c-2.176,2.176-4.432,3.393-6.768,3.648
			c-2.112,0-3.729-0.568-4.848-1.705c-1.121-1.135-1.665-2.742-1.633-4.824l0.049-5.23l-0.097-10.129l2.496-0.287l-0.144,15.168
			c-0.032,1.535,0.319,2.729,1.056,3.574c0.736,0.85,1.792,1.273,3.168,1.273c2.271,0,4.528-1.201,6.769-3.6v-16.129l2.399-0.287
			l-0.144,17.662C420.279,419.205,420.807,419.99,421.863,419.99z"/>
		<path fill="#6D7FE3" d="M439.671,400.117v2.4l-0.336,0.096c-0.576-0.096-1.089-0.145-1.536-0.145c-2.112,0-4.112,1.938-6,5.809
			v4.129l0.144,9.504h-2.495l0.144-9.361l-0.096-12.287l2.352-0.287v4.895h0.24c1.824-3.23,3.936-4.848,6.336-4.848
			C438.807,400.021,439.223,400.055,439.671,400.117z"/>
		<path fill="#6D7FE3" d="M457.19,401.365l-0.479,2.16l-0.384,0.049c-1.664-1.152-3.408-1.729-5.232-1.729
			c-2.08,0-3.72,0.824-4.92,2.473s-1.8,3.896-1.8,6.744c0,2.783,0.607,4.99,1.824,6.623c1.216,1.633,2.88,2.447,4.991,2.447
			c2.048,0,3.968-0.607,5.761-1.822l0.336,0.191l-0.24,2.111c-1.952,1.057-3.984,1.584-6.096,1.584c-2.753,0-4.929-0.99-6.528-2.977
			c-1.601-1.982-2.4-4.67-2.4-8.062c0-3.488,0.816-6.264,2.448-8.328s3.855-3.096,6.672-3.096
			C453.383,399.734,455.398,400.277,457.19,401.365z"/>
		<path fill="#6D7FE3" d="M477.35,401.486c1.184,1.135,1.76,2.744,1.729,4.824l-0.097,6.143l0.097,9.457h-2.496l0.191-15.121
			c0-1.535-0.392-2.727-1.176-3.576c-0.784-0.848-1.896-1.271-3.336-1.271c-2.336,0-4.688,1.328-7.056,3.984l-0.048,6.48
			l0.144,9.504h-2.448l0.145-9.361l-0.145-24.096l2.496-0.24l-0.144,15.266h0.288c2.271-2.209,4.512-3.439,6.72-3.697
			C474.453,399.781,476.166,400.35,477.35,401.486z"/>
	</g>
	<g>
		<path fill="#F7F5E7" d="M139.871,346.396l14.114,0.201c6.905,0,10.357-0.168,10.357-0.506l0.711,3.959
			c-1.761,1.152-2.894,2.777-3.402,4.873c-0.507,2.1-0.761,5.621-0.761,10.561c0,4.941,0.236,8.326,0.71,10.154l-0.914,1.32
			c-2.843,1.15-6.465,2.115-10.865,2.893c-4.401,0.777-8.767,1.168-13.098,1.168c-9.341,0-16.72-2.859-22.135-8.58
			c-5.416-5.719-8.123-13.824-8.123-24.318c0-10.49,3.214-18.9,9.646-25.23c6.43-6.33,15.264-9.494,26.501-9.494
			c5.618,0,12.319,0.848,20.104,2.537l0.71,1.32c-1.354,5.416-2.233,11.645-2.64,18.684l-10.052,0.609
			c0.203-1.691,0.305-3.74,0.305-6.143s-0.83-4.197-2.488-5.383c-1.66-1.184-4.452-1.777-8.377-1.777
			c-6.092,0-10.61,1.828-13.555,5.484c-2.944,3.654-4.417,9.443-4.417,17.363s1.488,14.131,4.468,18.631
			c2.978,4.502,7.174,6.752,12.591,6.752c1.759,0,3.452-0.219,5.077-0.66c1.625-0.439,3.181-1.1,4.671-1.979v-9.443
			c0-1.963-0.289-3.266-0.863-3.91c-0.576-0.643-1.777-0.965-3.604-0.965h-5.178l-0.609-0.811L139.871,346.396z"/>
		<path fill="#F7F5E7" d="M179.571,367.008v-20.105c0-2.299-0.305-3.873-0.914-4.721c-0.609-0.846-1.761-1.27-3.453-1.27
			l-1.929,0.102l-0.507-0.711l0.609-5.279l18.582-3.352l1.015,0.914c-0.677,3.387-1.05,6.533-1.117,9.443l0.609,0.406
			c2.097-3.113,4.417-5.566,6.955-7.361c2.539-1.793,4.991-2.691,7.361-2.691l3.452,0.406l0.406,0.812
			c-1.083,6.838-1.761,13.031-2.031,18.582l-6.6,0.406c0-3.25-0.203-5.398-0.609-6.447s-1.185-1.574-2.335-1.574
			c-2.302,0-4.536,1.455-6.701,4.365c-0.609,11.779-0.914,18.414-0.914,19.902s0.27,2.572,0.812,3.248
			c0.541,0.678,1.556,1.016,3.046,1.016l5.178-0.406l0.305,0.609l-1.117,6.904c-5.62-0.271-10.052-0.406-13.301-0.406l-12.794,0.406
			l0.812-6.295c2.031-0.135,3.401-0.676,4.112-1.625C179.215,371.34,179.571,369.58,179.571,367.008z"/>
		<path fill="#F7F5E7" d="M227.699,356.041v0.914c0.203,4.469,1.421,7.938,3.655,10.408s5.245,3.705,9.037,3.705
			c1.895,0,3.858-0.254,5.889-0.762c2.031-0.506,4.128-1.268,6.295-2.283l0.812,0.305l1.625,5.178
			c-2.776,2.031-5.838,3.791-9.189,5.279c-3.351,1.488-6.11,2.234-8.275,2.234c-7.176,0-12.811-2.098-16.906-6.295
			c-4.097-4.197-6.143-9.951-6.143-17.262s2.3-13.436,6.904-18.379c4.603-4.939,10.357-7.412,17.261-7.412
			c11.373,0,17.059,5.824,17.059,17.465c0,1.965-0.238,3.895-0.711,5.787l-1.218,1.117H227.699z M243.234,347.309
			c0-5.008-2.132-7.514-6.397-7.514c-2.64,0-4.756,0.898-6.346,2.691c-1.591,1.795-2.523,4.416-2.792,7.869l13.606-0.711
			c0.744-0.135,1.252-0.338,1.523-0.609C243.098,348.766,243.234,348.189,243.234,347.309z"/>
		<path fill="#F7F5E7" d="M297.657,366.145c0,1.389,0.338,2.455,1.016,3.199c0.676,0.744,1.658,1.115,2.945,1.115
			c1.285,0,2.775-0.574,4.467-1.725l1.625,2.131c-0.949,1.965-2.473,4.047-4.568,6.246c-2.1,2.199-3.859,3.502-5.281,3.908
			c-6.229,0-9.645-2.605-10.254-7.818l-0.812-0.305c-5.146,5.145-8.869,7.717-11.17,7.717c-3.926,0-7.227-1.422-9.899-4.264
			c-2.675-2.844-4.011-6.363-4.011-10.561c0-2.098,0.541-3.926,1.625-5.482c1.082-1.557,2.503-2.539,4.265-2.945l19.496-4.568
			l0.102-2.336c0-2.91-0.762-5.16-2.285-6.752c-1.523-1.59-3.402-2.387-5.635-2.387c-2.234,0-4.351,0.391-6.347,1.168
			c-1.998,0.779-4.079,1.98-6.245,3.605l-0.914-0.508l-1.828-6.094c9.273-5.211,15.536-7.818,18.784-7.818
			c5.686,0,9.934,1.27,12.744,3.809c2.807,2.539,4.213,5.906,4.213,10.104c0,1.082-0.34,4.434-1.016,10.051
			C297.995,361.254,297.657,364.758,297.657,366.145z M276.233,361.322c-1.558,0.473-2.335,1.59-2.335,3.35
			c0,1.762,0.524,3.217,1.574,4.367c1.048,1.15,2.539,1.725,4.468,1.725c1.928,0,4.178-0.947,6.752-2.842l0.203-9.545
			L276.233,361.322z"/>
		<path fill="#F7F5E7" d="M326.493,362.844c0,5.418,2.031,8.123,6.093,8.123c1.962,0,4.095-0.473,6.396-1.42l1.219,3.35
			c-5.687,5.416-9.58,8.123-11.677,8.123c-4.808,0-8.344-1-10.611-2.996c-2.269-1.994-3.401-5.16-3.401-9.492V345.99
			c0-2.098-0.373-3.52-1.116-4.266c-0.746-0.744-2.201-1.15-4.366-1.219l-1.016-0.711l0.711-5.076
			c5.279-2.438,10.255-5.482,14.926-9.139l2.335-1.828l2.844,1.523c-0.406,2.168-0.779,5.111-1.117,8.834l11.88-0.305l0.406,0.508
			l-1.016,6.904l-11.88-0.305C326.696,348.766,326.493,356.076,326.493,362.844z"/>
		<path fill="#F7F5E7" d="M422.851,366.297c0,2.641,0.305,4.434,0.913,5.381c0.609,0.949,1.727,1.422,3.352,1.422l3.655-0.305
			l0.508,0.812l-0.914,6.498c-5.62-0.203-10.561-0.305-14.824-0.305l-14.114,0.203l0.812-6.701c2.843-0.066,4.772-0.727,5.787-1.98
			c1.016-1.252,1.523-3.705,1.523-7.361v-12.895c-4.874-0.066-8.529-0.102-10.966-0.102l-14.215,1.016l-0.203,14.316
			c0,2.775,0.253,4.619,0.761,5.533s1.539,1.371,3.098,1.371l3.655-0.305l0.508,0.711l-0.914,6.498
			c-5.687-0.203-9.664-0.305-11.931-0.305c-2.269,0-4.688,0.066-7.26,0.203c-6.229,0.203-9.342,0.439-9.342,0.711l0.711-6.6
			c2.978-0.609,4.94-1.473,5.889-2.59c0.947-1.117,1.422-3.096,1.422-5.939l0.102-39.092c0-2.098-0.238-3.502-0.711-4.213
			c-0.475-0.711-1.456-1.066-2.944-1.066l-3.147,0.102l-0.508-0.812l0.812-5.99c5.347,0.068,9.374,0.102,12.083,0.102l15.332-0.711
			l-0.508,6.803c-2.573,0.406-4.198,1.033-4.874,1.879c-0.678,0.846-1.084,2.623-1.219,5.33l-0.609,14.52l12.997,0.203
			c4.196,0,8.189-0.236,11.981-0.711v-15.434c0-2.098-0.238-3.502-0.711-4.213c-0.474-0.711-1.456-1.066-2.944-1.066l-3.147,0.102
			l-0.508-0.812l0.812-5.99c5.753,0.068,10.085,0.102,12.996,0.102l14.927-0.711l-0.609,6.701c-2.505,0.34-4.147,0.863-4.925,1.574
			c-0.779,0.711-1.236,2.047-1.371,4.01C423.257,341.76,422.851,355.127,422.851,366.297z"/>
		<path fill="#F7F5E7" d="M483.366,355.381c0,7.48-2.252,13.625-6.753,18.43c-4.502,4.807-10.204,7.209-17.108,7.209
			c-6.905,0-12.321-2.115-16.246-6.346c-3.927-4.23-5.89-10.053-5.89-17.465s2.268-13.52,6.804-18.328
			c4.534-4.805,10.271-7.209,17.21-7.209c6.938,0,12.337,2.082,16.195,6.246C481.437,342.08,483.366,347.902,483.366,355.381z
			 M460.926,373.201c5.821,0,8.732-4.533,8.732-13.605c0-12.795-3.351-19.191-10.052-19.191c-5.823,0-8.732,4.537-8.732,13.607
			C450.874,366.805,454.225,373.201,460.926,373.201z"/>
		<path fill="#F7F5E7" d="M513.623,403.357l-12.388-0.203l-12.388,0.609l0.812-6.295c1.895-0.203,3.147-0.711,3.757-1.523
			s0.914-2.402,0.914-4.771l0.508-15.535v-28.635c0-2.367-0.355-3.975-1.066-4.822c-0.711-0.846-2.015-1.27-3.909-1.27h-1.32
			l-0.406-0.508l0.508-5.381l18.784-3.352l0.914,1.016c-0.542,2.303-0.914,4.436-1.116,6.396l0.405,0.508
			c5.415-5.008,8.766-7.514,10.053-7.514c6.092,0,10.981,2.049,14.672,6.145c3.688,4.096,5.534,9.492,5.534,16.193
			c0,7.92-2.506,14.303-7.514,19.141c-5.011,4.84-11.509,7.26-19.495,7.26l-4.163-0.305v9.342c0,2.775,0.219,4.635,0.66,5.584
			c0.439,0.947,1.437,1.422,2.995,1.422l4.062-0.203l0.305,0.406L513.623,403.357z M507.023,370.967
			c2.437,0.949,5.093,1.422,7.971,1.422c2.876,0,5.211-1.234,7.006-3.705c1.793-2.471,2.69-6.059,2.69-10.764
			c0-4.703-0.897-8.494-2.69-11.371c-1.795-2.877-4.214-4.316-7.26-4.316c-2.1,0-4.468,0.982-7.108,2.945
			C507.227,353.098,507.023,361.695,507.023,370.967z"/>
		<path fill="#F7F5E7" d="M556.268,356.041v0.914c0.203,4.469,1.422,7.938,3.655,10.408s5.245,3.705,9.037,3.705
			c1.894,0,3.858-0.254,5.889-0.762c2.031-0.506,4.128-1.268,6.296-2.283l0.812,0.305l1.625,5.178
			c-2.776,2.031-5.839,3.791-9.189,5.279s-6.109,2.234-8.275,2.234c-7.176,0-12.811-2.098-16.905-6.295
			c-4.097-4.197-6.144-9.951-6.144-17.262s2.301-13.436,6.905-18.379c4.603-4.939,10.356-7.412,17.261-7.412
			c11.372,0,17.059,5.824,17.059,17.465c0,1.965-0.238,3.895-0.711,5.787l-1.219,1.117H556.268z M571.803,347.309
			c0-5.008-2.132-7.514-6.396-7.514c-2.641,0-4.757,0.898-6.347,2.691c-1.591,1.795-2.522,4.416-2.792,7.869l13.605-0.711
			c0.744-0.135,1.252-0.338,1.523-0.609C571.666,348.766,571.803,348.189,571.803,347.309z"/>
	</g>
</g>
</svg>
