<svg xmlns="http://www.w3.org/2000/svg" xmlns:xlink="http://www.w3.org/1999/xlink" width="683.966" height="437.979" viewBox="0 0 683.966 437.979"><defs><path id="a" d="M-7.5 297.583V-12h668.967v325.17L515.39 285.398s-235.5-57-383 19.5L-7.5 297.583z"/></defs><clipPath id="b"><use xlink:href="#a" overflow="visible"/></clipPath><g clip-path="url(#b)"><path fill="none" stroke="#F7F5E7" stroke-width="1.634" stroke-miterlimit="10" d="M630.02 218.097L545.31 173.7l-420.737-25.354-100.477 68.92v65.967l256.606 29.938 349.318-40.593V218.1l-349.318-2.984-156.13-66.768"/><path d="M163.747 149.887l9.53-109.662h.015V18.927h-6.05l-.015-2.304 6.065-.025v-6.106h2.494l.02 6.063 6.055-.005-.01 2.33-6.03.024-.026 21.57h-1.38l-1.356 109.972zm11.225-138.575l.014 4.433.005 1.63h1.63l4.42-.004-.002.7-4.41.02-1.624.008v1.625l-.024 19.94h-.866V18.11h-6.053l-.003-.673 4.433-.02 1.626-.006v-6.1h.862m-1.458 35.61l-1.27 102.66-7.612-.454 8.88-102.202m3.088-37.242h-4.125v6.11l-6.07.024.028 3.937h6.045v20.48l-.01-.077-9.603 110.503 22.61 1.362-8.864-111.54.024-20.756 6.025-.024.025-3.96-6.063.003-.02-6.063zm7.982 141.466l-10.712-.666L175.224 41.3h.635l8.73 109.847z" fill="#F7F5E7"/><path fill="#F7F5E7" stroke="#F7F5E7" stroke-width="1.634" stroke-miterlimit="10" d="M280.702 215.114l348.816 2.72 2.652 1.276-2.594-.16.254 1.54-349.128 1.16-155.676-65.11-95.062 60.663-5.868.064 100.477-68.92z"/><path fill="#F7F5E7" stroke="#F7F5E7" stroke-width=".658" stroke-miterlimit="10" d="M114.293 182.842l14.818-.154 33.75 18.038v98.697l-15.39-1.795v-97.056l-33.173-17.73"/><path fill="none" stroke="#F7F5E7" stroke-width=".647" stroke-miterlimit="10" d="M147.465 297.583L81.12 289.84v-87.187l33.173-19.81 33.172 17.73z"/><path fill="#F7F5E7" d="M115 198.276l-1.786 19.95-16.703 2.107 16.547 2.108 2.027 40.34 1.866-40.172 17.677-2.27-18.165-2.27z"/><path d="M204.945 276.655l-16.073-.873v-29.084l16.073.196zm0-29.86c0-4.46-3.62-8.08-8.036-8.08-4.366-.003-7.86 3.53-7.86 7.89l15.89.19zM70.225 265.86l-12.953-.703v-23.44l12.952.16zm0-24.062c0-3.594-2.918-6.512-6.476-6.512-3.52-.002-6.336 2.846-6.336 6.357l12.806.157zm243.448 4.64l17.137-.218v30.926l-17.137 1.123v-31.835m17.137-.22c0-4.837-3.812-8.962-8.57-8.86-4.814.107-8.566 4.13-8.566 9.078l17.136-.217zm46.106-2.16l15.996-.203v28.872l-15.996 1.046v-29.713m0 0c0-4.62 3.502-8.375 7.998-8.473 4.44-.098 7.998 3.754 7.998 8.27l-15.996.203zm53.354-1.774l14.53-.183v26.227l-14.53.953v-26.995m14.53-.185c0-4.103-3.23-7.6-7.265-7.513-4.084.09-7.266 3.5-7.266 7.697l14.53-.183zm33.227-1.59l14.168-.18v25.57l-14.168.927V240.51m14.168-.18c0-4-3.15-7.41-7.084-7.325-3.98.086-7.08 3.412-7.08 7.504l14.17-.18zm27.785-1l13.23-.165v23.877l-13.23.87v-24.58m13.23-.167c0-3.738-2.946-6.922-6.618-6.842-3.72.08-6.613 3.186-6.613 7.008l13.23-.16zm24.57-1.207l12.366-.156v22.322l-12.367.81v-22.976m12.364-.156c0-3.492-2.75-6.47-6.184-6.393-3.476.07-6.183 2.972-6.183 6.544l12.368-.156zm22.55-.694l11.583-.144v20.902l-11.587.758v-21.516m11.587-.144c0-3.27-2.578-6.06-5.793-5.988-3.256.07-5.793 2.79-5.793 6.133" fill="#F7F5E7" stroke="#29478C" stroke-width="1.634" stroke-miterlimit="10"/><path fill="none" stroke="#F7F5E7" stroke-miterlimit="10" d="M280.702 221.65v92.914"/></g><path fill="#29478C" stroke="#F7F5E7" stroke-miterlimit="10" d="M145.834 353.65c6.874-58.52 164.296-88.126 351.614-66.125 25.52 2.997 50.27 6.804 73.984 11.28-28.9-7.034-59.6-13.11-91.55-17.956-186.473-28.29-344.803-3.997-353.64 54.26-3.036 20.02 11.972 41.44 40.546 62.083-15.09-14.428-22.64-29.19-20.954-43.546z"/><path fill="#6D7FE3" stroke="#F7F5E7" stroke-miterlimit="10" d="M125.777 336.228c8.836-58.255 167.167-82.55 353.64-54.265 43.876 6.656 85.398 15.632 123.134 26.223-39.162-13.488-82.853-25.402-129.364-34.8-184.87-37.35-344.196-20.81-355.865 36.944-2.13 10.538.825 21.72 8.166 33.184-.15-2.446-.07-4.877.294-7.286z"/><text transform="translate(298.929 421.909)" fill="#6D7FE3" font-family="'AlegreyaSans-Light'" font-size="48">Baptist Church</text><text transform="translate(188.38 379.801)" fill="#F7F5E7" font-family="'Alegreya-Bold'" font-size="101.537">Great Hope</text></svg>
